<?xml version="1.0" encoding="UTF-8" standalone="no"?>
<!-- Created with Inkscape (http://www.inkscape.org/) -->

<svg
   width="18"
   height="18"
   viewBox="0 0 4.7624999 4.7625"
   version="1.1"
   id="svg5"
   xml:space="preserve"
   inkscape:version="1.2 (dc2aedaf03, 2022-05-15)"
   sodipodi:docname="bold.svg"
   inkscape:export-filename="cut_dark.png"
   inkscape:export-xdpi="96"
   inkscape:export-ydpi="96"
   xmlns:inkscape="http://www.inkscape.org/namespaces/inkscape"
   xmlns:sodipodi="http://sodipodi.sourceforge.net/DTD/sodipodi-0.dtd"
   xmlns="http://www.w3.org/2000/svg"
   xmlns:svg="http://www.w3.org/2000/svg"><sodipodi:namedview
     id="namedview7"
     pagecolor="#ffffff"
     bordercolor="#000000"
     borderopacity="0.25"
     inkscape:showpageshadow="2"
     inkscape:pageopacity="0.0"
     inkscape:pagecheckerboard="0"
     inkscape:deskcolor="#d1d1d1"
     inkscape:document-units="mm"
     showgrid="false"
     inkscape:zoom="2.6847826"
     inkscape:cx="-1.1174089"
     inkscape:cy="4.097166"
     inkscape:window-width="1366"
     inkscape:window-height="697"
     inkscape:window-x="-8"
     inkscape:window-y="-8"
     inkscape:window-maximized="1"
     inkscape:current-layer="layer1" /><defs
     id="defs2" /><g
     inkscape:label="Camada 1"
     inkscape:groupmode="layer"
     id="layer1"><path
       fill="currentColor"
       d="M 3.2345315,2.3256875 C 3.4911775,2.1484166 3.6710945,1.857375 3.6710945,1.5875 c 0,-0.59795836 -0.463021,-1.05833336 -1.058334,-1.05833336 H 0.9591145 V 4.2333334 h 1.862667 c 0.552979,0 0.981604,-0.4497918 0.981604,-1.0027709 0,-0.4021667 -0.227541,-0.746125 -0.568854,-0.904875 z M 1.7528645,1.190625 h 0.79375 c 0.219605,0 0.396875,0.1772708 0.396875,0.396875 0,0.2196041 -0.17727,0.396875 -0.396875,0.396875 h -0.79375 z m 0.926042,2.38125 h -0.926042 v -0.79375 h 0.926042 c 0.219604,0 0.396875,0.1772708 0.396875,0.396875 0,0.2196041 -0.177271,0.396875 -0.396875,0.396875 z"
       id="path484"
       style="stroke-width:0.264583" /></g></svg>
