<?xml version="1.0" encoding="UTF-8" standalone="no"?>
<!-- Created with Inkscape (http://www.inkscape.org/) -->

<svg
   width="18"
   height="18"
   viewBox="0 0 4.7624999 4.7625"
   version="1.1"
   id="svg5"
   xml:space="preserve"
   inkscape:version="1.2 (dc2aedaf03, 2022-05-15)"
   sodipodi:docname="copy.svg"
   inkscape:export-filename="cut_dark.png"
   inkscape:export-xdpi="96"
   inkscape:export-ydpi="96"
   xmlns:inkscape="http://www.inkscape.org/namespaces/inkscape"
   xmlns:sodipodi="http://sodipodi.sourceforge.net/DTD/sodipodi-0.dtd"
   xmlns="http://www.w3.org/2000/svg"
   xmlns:svg="http://www.w3.org/2000/svg"><sodipodi:namedview
     id="namedview7"
     pagecolor="#ffffff"
     bordercolor="#000000"
     borderopacity="0.25"
     inkscape:showpageshadow="2"
     inkscape:pageopacity="0.0"
     inkscape:pagecheckerboard="0"
     inkscape:deskcolor="#d1d1d1"
     inkscape:document-units="mm"
     showgrid="false"
     inkscape:zoom="27.444444"
     inkscape:cx="8.9817814"
     inkscape:cy="9"
     inkscape:window-width="1366"
     inkscape:window-height="697"
     inkscape:window-x="-8"
     inkscape:window-y="-8"
     inkscape:window-maximized="1"
     inkscape:current-layer="layer1" /><defs
     id="defs2" /><g
     inkscape:label="Camada 1"
     inkscape:groupmode="layer"
     id="layer1"><path
       style="fill:#e6e6e6;fill-opacity:1;stroke-width:0.00826704"
       d="M 0.822553,4.4844607 C 0.69046564,4.4561208 0.55778149,4.3539891 0.49812049,4.2347338 0.43835584,4.1152713 0.44148408,4.1986479 0.44407608,2.7942956 l 0.002327,-1.2607225 0.0175084,-0.045654 c 0.0344259,-0.089768 0.06393,-0.1367865 0.12213044,-0.194629 0.1062253,-0.1055718 0.20451221,-0.1441339 0.36736813,-0.1441339 0.10602675,0 0.13861485,0.010081 0.16856875,0.052148 0.02757,0.038719 0.030028,0.1091211 0.00509,0.1458143 -0.033256,0.048934 -0.063638,0.060714 -0.17147745,0.066487 -0.1042952,0.00558 -0.13248526,0.015062 -0.18129948,0.060958 -0.0151757,0.014268 -0.0356367,0.040823 -0.0454687,0.059011 l -0.0178764,0.033068 -0.002173,1.2396688 c -0.002462,1.4046829 -0.007939,1.2900714 0.0650418,1.3611568 0.0723724,0.070493 -0.0276404,0.065293 1.25572303,0.065293 1.2609759,0 1.1791463,0.00356 1.2466314,-0.054207 0.054346,-0.046518 0.070899,-0.090862 0.07603,-0.2036651 0.00366,-0.080579 0.00725,-0.1005266 0.021591,-0.1198721 0.060031,-0.081023 0.1614431,-0.080975 0.2215903,1.059e-4 0.023303,0.031414 0.028427,0.1638301 0.00981,0.2536323 C 3.5665392,4.2952701 3.4170344,4.446102 3.2323932,4.4848678 3.1483102,4.5025208 0.90496375,4.5021428 0.822553,4.4844607 Z M 1.8807333,3.4262804 C 1.7955032,3.407994 1.711565,3.3610669 1.6450801,3.2945349 1.5778672,3.2272743 1.5399547,3.1610564 1.5167808,3.0704475 1.5009001,3.0083546 1.5004498,2.9747485 1.5004498,1.8518538 c 0,-1.12289464 4.503e-4,-1.15650073 0.016331,-1.21859364 0.023183,-0.0906458 0.061084,-0.15683122 0.1282993,-0.22404638 0.067215,-0.0672152 0.1334006,-0.10511596 0.2240464,-0.12829925 0.061821,-0.0158111 0.094963,-0.0163311 1.0408525,-0.0163311 0.9384507,0 0.9794623,6.3013e-4 1.0394435,0.0159707 0.094825,0.0242521 0.1593239,0.0607295 0.2259517,0.12778674 0.06903,0.0694746 0.1036172,0.12708661 0.1270097,0.2115588 0.016949,0.0612023 0.017124,0.0738248 0.017124,1.23059463 0,1.2899531 0.00314,1.2103357 -0.052249,1.3240849 -0.035183,0.072249 -0.1318628,0.1705288 -0.202842,0.2061969 -0.028902,0.014524 -0.080649,0.033593 -0.1149942,0.042377 -0.060055,0.015359 -0.099802,0.015946 -1.0386992,0.015314 -0.801911,-5.4e-4 -0.9858507,-0.00272 -1.0299902,-0.012187 z M 3.935091,3.1525692 c 0.043946,-0.023757 0.082099,-0.064723 0.1026887,-0.1102626 0.016658,-0.036842 0.01682,-0.048363 0.01682,-1.1904528 0,-1.14209037 -1.628e-4,-1.15361112 -0.01682,-1.19045275 C 4.0171896,0.61586164 3.9790376,0.5748956 3.935091,0.55113843 l -0.033068,-0.0178764 -0.9750411,-0.0022 C 1.8227252,0.52856957 1.9016181,0.5239904 1.830929,0.5946795 1.7597457,0.66586304 1.7649945,0.565774 1.7649945,1.8518538 c 0,1.2890224 -0.00547,1.186842 0.067336,1.2577572 0.070483,0.068653 -0.011163,0.063985 1.090049,0.062317 l 0.9796434,-0.00148 z"
       id="path561" /></g></svg>
