<?xml version="1.0" encoding="UTF-8" standalone="no"?>
<!-- Created with Inkscape (http://www.inkscape.org/) -->

<svg
   width="18"
   height="18"
   viewBox="0 0 4.7624999 4.7625"
   version="1.1"
   id="svg5"
   xml:space="preserve"
   inkscape:version="1.2 (dc2aedaf03, 2022-05-15)"
   sodipodi:docname="link.svg"
   inkscape:export-filename="cut_dark.png"
   inkscape:export-xdpi="96"
   inkscape:export-ydpi="96"
   xmlns:inkscape="http://www.inkscape.org/namespaces/inkscape"
   xmlns:sodipodi="http://sodipodi.sourceforge.net/DTD/sodipodi-0.dtd"
   xmlns="http://www.w3.org/2000/svg"
   xmlns:svg="http://www.w3.org/2000/svg"><sodipodi:namedview
     id="namedview7"
     pagecolor="#ffffff"
     bordercolor="#000000"
     borderopacity="0.25"
     inkscape:showpageshadow="2"
     inkscape:pageopacity="0.0"
     inkscape:pagecheckerboard="0"
     inkscape:deskcolor="#d1d1d1"
     inkscape:document-units="mm"
     showgrid="false"
     inkscape:zoom="6.8611111"
     inkscape:cx="-14.720648"
     inkscape:cy="7.2874494"
     inkscape:window-width="1366"
     inkscape:window-height="697"
     inkscape:window-x="-8"
     inkscape:window-y="-8"
     inkscape:window-maximized="1"
     inkscape:current-layer="layer1" /><defs
     id="defs2" /><g
     inkscape:label="Camada 1"
     inkscape:groupmode="layer"
     id="layer1"><path
       fill="currentColor"
       d="m -1.9905456e36,-1.244091e36 h 3.9810912e36 v 9.9527275e35 h -3.9810912e36 z m 6.0214007e36,4.9763635e35 h 9.45509e35 c 0,-1.37347645e36 -1.1147056e36,-2.48818195e36 -2.4881821e36,-2.48818195e36 H 4.9763639e35 v 9.455091e35 H 2.488182e36 c 8.509583e35,0 1.5426731e36,6.917146e35 1.5426731e36,1.54267285e36 z m -8.06171e36,0 c 0,-8.5095825e35 6.917146e35,-1.54267285e36 1.5426729e36,-1.54267285e36 h 1.99054559e36 v -9.455091e35 H -2.488182e36 c -1.3734765e36,0 -2.4881821e36,1.1147055e36 -2.4881821e36,2.48818195e36 0,1.3734765e36 1.1147056e36,2.48818205e36 2.4881821e36,2.48818205e36 H -4.9763641e35 V 7.9621825e35 H -2.488182e36 c -8.509583e35,0 -1.5426729e36,-6.917146e35 -1.5426729e36,-1.5426729e36 z m 7.5143098e36,0 H 2.488182e36 V 7.4645455e35 H 9.9527279e35 V 1.7417274e36 H 2.488182e36 v 1.4929093e36 h 9.952729e35 V 1.7417274e36 H 4.9763641e36 V 7.4645455e35 H 3.4834549e36 Z"
       id="path241"
       style="stroke-width:4.97636e+35" /><path
       fill="currentColor"
       d="M 1.6404166,2.5664584 H 3.1220833 V 2.936875 H 1.6404166 Z M 3.881437,2.7516667 h 0.3518963 c 0,-0.511175 -0.4148669,-0.9260417 -0.9260419,-0.9260417 h -0.740833 v 0.3518959 h 0.740833 c 0.3167066,0 0.5741456,0.2574396 0.5741456,0.5741458 z m -3.00037477,0 c 0,-0.3167062 0.25743967,-0.5741458 0.57414627,-0.5741458 h 0.740833 V 1.825625 h -0.740833 c -0.51117498,0 -0.92604185,0.4148667 -0.92604185,0.9260417 0,0.5111749 0.41486687,0.9260416 0.92604185,0.9260416 h 0.740833 V 3.3258124 h -0.740833 c -0.3167066,0 -0.57414627,-0.2574395 -0.57414627,-0.5741457 z m 2.79664607,0 H 3.3072914 V 3.3072916 H 2.7516665 v 0.3704167 h 0.5556249 v 0.555625 h 0.3704169 v -0.555625 h 0.555625 V 3.3072916 h -0.555625 z"
       id="path250"
       style="stroke-width:0.185208;fill:#e6e6e6" /></g></svg>
