<?xml version="1.0" encoding="UTF-8" standalone="no"?>
<!-- Created with Inkscape (http://www.inkscape.org/) -->

<svg
   width="18"
   height="18"
   viewBox="0 0 4.7624999 4.7625"
   version="1.1"
   id="svg5"
   xml:space="preserve"
   inkscape:version="1.2 (dc2aedaf03, 2022-05-15)"
   sodipodi:docname="list_enum.svg"
   xmlns:inkscape="http://www.inkscape.org/namespaces/inkscape"
   xmlns:sodipodi="http://sodipodi.sourceforge.net/DTD/sodipodi-0.dtd"
   xmlns="http://www.w3.org/2000/svg"
   xmlns:svg="http://www.w3.org/2000/svg"><sodipodi:namedview
     id="namedview7"
     pagecolor="#ffffff"
     bordercolor="#000000"
     borderopacity="0.25"
     inkscape:showpageshadow="2"
     inkscape:pageopacity="0.0"
     inkscape:pagecheckerboard="0"
     inkscape:deskcolor="#d1d1d1"
     inkscape:document-units="mm"
     showgrid="false"
     inkscape:zoom="13.722222"
     inkscape:cx="8.9635627"
     inkscape:cy="8.9635627"
     inkscape:window-width="1366"
     inkscape:window-height="697"
     inkscape:window-x="-8"
     inkscape:window-y="-8"
     inkscape:window-maximized="1"
     inkscape:current-layer="layer1" /><defs
     id="defs2" /><g
     inkscape:label="Camada 1"
     inkscape:groupmode="layer"
     id="layer1"><path
       fill="currentColor"
       d="M 1.3786184,2.604057 V 2.1584431 H 4.4979166 V 2.604057 H 1.3786184 m 0,1.3368421 v -0.445614 h 3.1192982 v 0.445614 H 1.3786184 m 0,-2.6736842 V 0.82160091 H 4.4979166 V 1.2672149 H 1.3786184 M 0.48739034,1.490022 V 0.82160091 H 0.26458335 V 0.59879384 H 0.71019732 V 1.490022 H 0.48739034 M 0.26458335,3.4952851 V 3.2724781 H 0.93300439 V 4.1637062 H 0.26458335 V 3.9408991 H 0.71019732 V 3.8294957 H 0.48739034 V 3.6066886 H 0.71019732 V 3.4952851 H 0.26458335 M 0.76589913,1.935636 a 0.16710526,0.16710526 0 0 1 0.16710526,0.1671052 c 0,0.044562 -0.0178248,0.086895 -0.046789,0.1158598 L 0.51412718,2.604057 H 0.93300439 V 2.8268641 H 0.26458335 V 2.6218816 L 0.71019732,2.1584431 H 0.26458335 V 1.935636 Z"
       id="path2311"
       style="stroke-width:0.222807;fill:#e6e6e6" /></g></svg>
