<?xml version="1.0" encoding="UTF-8" standalone="no"?>
<!-- Created with Inkscape (http://www.inkscape.org/) -->

<svg
   width="18"
   height="18"
   viewBox="0 0 4.7624999 4.7625"
   version="1.1"
   id="svg5"
   xml:space="preserve"
   inkscape:version="1.2 (dc2aedaf03, 2022-05-15)"
   sodipodi:docname="list_bullet.svg"
   xmlns:inkscape="http://www.inkscape.org/namespaces/inkscape"
   xmlns:sodipodi="http://sodipodi.sourceforge.net/DTD/sodipodi-0.dtd"
   xmlns="http://www.w3.org/2000/svg"
   xmlns:svg="http://www.w3.org/2000/svg"><sodipodi:namedview
     id="namedview7"
     pagecolor="#ffffff"
     bordercolor="#000000"
     borderopacity="0.25"
     inkscape:showpageshadow="2"
     inkscape:pageopacity="0.0"
     inkscape:pagecheckerboard="0"
     inkscape:deskcolor="#d1d1d1"
     inkscape:document-units="mm"
     showgrid="false"
     inkscape:zoom="13.722222"
     inkscape:cx="8.9635627"
     inkscape:cy="8.9635627"
     inkscape:window-width="1366"
     inkscape:window-height="697"
     inkscape:window-x="-8"
     inkscape:window-y="-8"
     inkscape:window-maximized="1"
     inkscape:current-layer="layer1" /><defs
     id="defs2" /><g
     inkscape:label="Camada 1"
     inkscape:groupmode="layer"
     id="layer1"><path
       fill="currentColor"
       d="M 1.2943131,0.77944825 H 4.4979167 V 1.2371058 H 1.2943131 V 0.77944825 m 0,1.83063055 V 2.1524212 H 4.4979167 V 2.6100788 H 1.2943131 M 0.60782659,0.66503381 A 0.34324324,0.34324324 0 0 1 0.95106983,1.008277 0.34324324,0.34324324 0 0 1 0.60782659,1.3515203 0.34324324,0.34324324 0 0 1 0.26458335,1.008277 0.34324324,0.34324324 0 0 1 0.60782659,0.66503381 m 0,1.37297299 A 0.34324324,0.34324324 0 0 1 0.95106983,2.38125 0.34324324,0.34324324 0 0 1 0.60782659,2.7244932 0.34324324,0.34324324 0 0 1 0.26458335,2.38125 0.34324324,0.34324324 0 0 1 0.60782659,2.0380068 M 1.2943131,3.9830518 V 3.5253942 H 4.4979167 V 3.9830518 H 1.2943131 M 0.60782659,3.4109797 A 0.34324324,0.34324324 0 0 1 0.95106983,3.754223 0.34324324,0.34324324 0 0 1 0.60782659,4.0974662 0.34324324,0.34324324 0 0 1 0.26458335,3.754223 0.34324324,0.34324324 0 0 1 0.60782659,3.4109797 Z"
       id="path1826"
       style="stroke-width:0.228829;fill:#e6e6e6" /></g></svg>
