<?xml version="1.0" encoding="UTF-8" standalone="no"?>
<!-- Created with Inkscape (http://www.inkscape.org/) -->

<svg
   width="192"
   height="192"
   viewBox="0 0 50.799999 50.8"
   version="1.1"
   id="svg5"
   inkscape:version="1.2 (dc2aedaf03, 2022-05-15)"
   sodipodi:docname="mfm_logo.svg"
   inkscape:export-filename="mfm_logo.png"
   inkscape:export-xdpi="96"
   inkscape:export-ydpi="96"
   xmlns:inkscape="http://www.inkscape.org/namespaces/inkscape"
   xmlns:sodipodi="http://sodipodi.sourceforge.net/DTD/sodipodi-0.dtd"
   xmlns="http://www.w3.org/2000/svg"
   xmlns:svg="http://www.w3.org/2000/svg">
  <sodipodi:namedview
     id="namedview7"
     pagecolor="#ffffff"
     bordercolor="#000000"
     borderopacity="0.25"
     inkscape:showpageshadow="2"
     inkscape:pageopacity="0.0"
     inkscape:pagecheckerboard="0"
     inkscape:deskcolor="#d1d1d1"
     inkscape:document-units="mm"
     showgrid="false"
     inkscape:zoom="1.8193268"
     inkscape:cx="81.34877"
     inkscape:cy="96.189424"
     inkscape:window-width="1366"
     inkscape:window-height="697"
     inkscape:window-x="-8"
     inkscape:window-y="-8"
     inkscape:window-maximized="1"
     inkscape:current-layer="layer1" />
  <defs
     id="defs2" />
  <g
     inkscape:label="Camada 1"
     inkscape:groupmode="layer"
     id="layer1">
    <g
       id="g5579">
      <path
         id="rect5566"
         style="fill:#e6e6e6;stroke-width:0.0882093;stroke-linecap:round;stroke-linejoin:round"
         d="M 12.7,12.7 H 38.1 V 38.1 H 12.7 Z" />
      <g
         id="g5512">
        <path
           id="path1515"
           style="stroke:#a9dcfe;stroke-width:0.0600834;stroke-linecap:round;stroke-linejoin:round;fill:#1565c0;fill-opacity:1"
           d="M 25.369957,12.699999 A 12.669958,12.669958 0 0 1 12.699998,25.369958 12.669958,12.669958 0 0 1 0.0300417,12.699999 12.669958,12.669958 0 0 1 12.699998,0.0300417 12.669958,12.669958 0 0 1 25.369957,12.699999 Z" />
        <path
           id="path1626"
           style="stroke:#a9dcfe;stroke-width:0.0600834;stroke-linecap:round;stroke-linejoin:round;fill:#ff6f00;fill-opacity:1"
           d="M 50.769958,12.699999 A 12.669959,12.669958 0 0 1 38.099998,25.369958 12.669959,12.669958 0 0 1 25.430042,12.699999 12.669959,12.669958 0 0 1 38.099998,0.0300417 12.669959,12.669958 0 0 1 50.769958,12.699999 Z" />
        <path
           id="path1628"
           style="stroke:#a9dcfe;stroke-width:0.0600834;stroke-linecap:round;stroke-linejoin:round;fill:#2e7d32;fill-opacity:1"
           d="M 25.369957,38.099999 A 12.669958,12.669958 0 0 1 12.699998,50.769958 12.669958,12.669958 0 0 1 0.0300417,38.099999 12.669958,12.669958 0 0 1 12.699998,25.430042 12.669958,12.669958 0 0 1 25.369957,38.099999 Z" />
        <path
           id="path1630"
           style="stroke:#a9dcfe;stroke-width:0.0600834;stroke-linecap:round;stroke-linejoin:round;fill:#c2185b;fill-opacity:1"
           d="M 50.769958,38.099999 A 12.669959,12.669958 0 0 1 38.099998,50.769958 12.669959,12.669958 0 0 1 25.430042,38.099999 12.669959,12.669958 0 0 1 38.099998,25.430042 12.669959,12.669958 0 0 1 50.769958,38.099999 Z" />
      </g>
      <g
         aria-label="M"
         id="text5332"
         style="font-weight:bold;font-size:5.64444px;font-family:'Berlin Sans FB Demi';-inkscape-font-specification:'Berlin Sans FB Demi Bold';text-align:end;text-anchor:end;fill:#000000;stroke:none;stroke-width:0.0499999;stroke-linecap:round;stroke-linejoin:round"
         transform="matrix(9.1601798,0,0,9.1601798,250.41432,-174.15837)">
        <path
           d="m -22.509746,23.619527 q 0,0.08544 -0.07993,0.08544 h -0.975651 q -0.07993,0 -0.07993,-0.09646 0,-0.278364 0.01929,-0.835091 0.02205,-0.556727 0.02205,-0.83509 0,-0.07993 -0.0248,-0.08544 -0.03032,0.01654 -0.369314,0.851627 -0.198438,0.490581 -0.396875,0.978406 -0.02756,0.06339 -0.0689,0.07441 -0.01378,0.0028 -0.110243,0.0028 -0.143316,0 -0.170876,-0.05512 -0.148828,-0.303169 -0.391363,-0.881944 -0.259071,-0.611849 -0.388606,-0.8847 -0.0055,-0.01378 -0.02481,-0.03032 -0.01929,0.02481 -0.01929,0.07993 0,0.270096 0.01378,0.810286 0.01378,0.540191 0.01378,0.810286 0,0.09646 -0.07717,0.09646 h -0.920529 q -0.05512,0 -0.0689,-0.01654 -0.01102,-0.01929 -0.01102,-0.06339 0,-0.300412 0.02756,-0.901236 0.03032,-0.60358 0.03032,-0.903992 0,-0.319705 -0.02756,-1.198893 -0.0028,-0.228754 -0.02481,-0.68075 l -0.0028,-0.04685 q -0.0028,-0.05512 0.115755,-0.05512 0.151584,0 0.454752,-0.0083 0.303169,-0.01102 0.454753,-0.01102 0.03032,0 0.08544,0.115755 l 0.804774,1.766644 q 0.08544,0.179144 0.143316,0.179144 0.03032,0 0.129535,-0.206705 0.278364,-0.578776 0.824066,-1.744595 0.04685,-0.107487 0.101975,-0.107487 0.07993,0 0.239779,0.0083 0.162608,0.0083 0.24529,0.0083 0.0689,0 0.209462,-0.01378 0.143316,-0.01378 0.212218,-0.01378 0.08268,0 0.08268,0.06615 0,0.325217 -0.0248,0.972895 -0.02205,0.644921 -0.02205,0.970138 0,0.300412 0.02481,0.901236 0.02481,0.600824 0.02481,0.89848 z"
           style="fill:#000000;stroke-width:0.05;stroke:none"
           id="path5384" />
      </g>
      <g
         aria-label="M"
         id="g5506"
         style="font-weight:bold;font-size:5.64444px;font-family:'Berlin Sans FB Demi';-inkscape-font-specification:'Berlin Sans FB Demi Bold';text-align:end;text-anchor:end;fill:#ffffff;stroke:none;stroke-width:0.0499999;stroke-linecap:round;stroke-linejoin:round"
         transform="matrix(7.5847136,0,0,7.5847136,210.22327,-143.02672)">
        <path
           d="m -22.509746,23.619527 q 0,0.08544 -0.07993,0.08544 h -0.975651 q -0.07993,0 -0.07993,-0.09646 0,-0.278364 0.01929,-0.835091 0.02205,-0.556727 0.02205,-0.83509 0,-0.07993 -0.0248,-0.08544 -0.03032,0.01654 -0.369314,0.851627 -0.198438,0.490581 -0.396875,0.978406 -0.02756,0.06339 -0.0689,0.07441 -0.01378,0.0028 -0.110243,0.0028 -0.143316,0 -0.170876,-0.05512 -0.148828,-0.303169 -0.391363,-0.881944 -0.259071,-0.611849 -0.388606,-0.8847 -0.0055,-0.01378 -0.02481,-0.03032 -0.01929,0.02481 -0.01929,0.07993 0,0.270096 0.01378,0.810286 0.01378,0.540191 0.01378,0.810286 0,0.09646 -0.07717,0.09646 h -0.920529 q -0.05512,0 -0.0689,-0.01654 -0.01102,-0.01929 -0.01102,-0.06339 0,-0.300412 0.02756,-0.901236 0.03032,-0.60358 0.03032,-0.903992 0,-0.319705 -0.02756,-1.198893 -0.0028,-0.228754 -0.02481,-0.68075 l -0.0028,-0.04685 q -0.0028,-0.05512 0.115755,-0.05512 0.151584,0 0.454752,-0.0083 0.303169,-0.01102 0.454753,-0.01102 0.03032,0 0.08544,0.115755 l 0.804774,1.766644 q 0.08544,0.179144 0.143316,0.179144 0.03032,0 0.129535,-0.206705 0.278364,-0.578776 0.824066,-1.744595 0.04685,-0.107487 0.101975,-0.107487 0.07993,0 0.239779,0.0083 0.162608,0.0083 0.24529,0.0083 0.0689,0 0.209462,-0.01378 0.143316,-0.01378 0.212218,-0.01378 0.08268,0 0.08268,0.06615 0,0.325217 -0.0248,0.972895 -0.02205,0.644921 -0.02205,0.970138 0,0.300412 0.02481,0.901236 0.02481,0.600824 0.02481,0.89848 z"
           style="fill:#ffffff;stroke:none;stroke-width:0.05"
           id="path5504" />
      </g>
    </g>
  </g>
</svg>
