<?xml version="1.0" encoding="UTF-8" standalone="no"?>
<!-- Uploaded to: SVG Repo, www.svgrepo.com, Generator: SVG Repo Mixer Tools -->

<svg
   fill="#000000"
   width="16"
   height="16"
   viewBox="0 0 0.48 0.48"
   version="1.1"
   id="svg192"
   sodipodi:docname="picture.svg"
   inkscape:version="1.2 (dc2aedaf03, 2022-05-15)"
   xmlns:inkscape="http://www.inkscape.org/namespaces/inkscape"
   xmlns:sodipodi="http://sodipodi.sourceforge.net/DTD/sodipodi-0.dtd"
   xmlns="http://www.w3.org/2000/svg"
   xmlns:svg="http://www.w3.org/2000/svg">
  <defs
     id="defs196" />
  <sodipodi:namedview
     id="namedview194"
     pagecolor="#ffffff"
     bordercolor="#000000"
     borderopacity="0.25"
     inkscape:showpageshadow="2"
     inkscape:pageopacity="0.0"
     inkscape:pagecheckerboard="0"
     inkscape:deskcolor="#d1d1d1"
     showgrid="false"
     inkscape:zoom="30.875"
     inkscape:cx="7.5465587"
     inkscape:cy="8"
     inkscape:window-width="1366"
     inkscape:window-height="697"
     inkscape:window-x="-8"
     inkscape:window-y="-8"
     inkscape:window-maximized="1"
     inkscape:current-layer="svg192" />
  <path
     d="M 0.429,0.03 H 0.051 A 0.021,0.021 0 0 0 0.03,0.051 V 0.429 A 0.021,0.021 0 0 0 0.051,0.45 H 0.429 A 0.021,0.021 0 0 0 0.45,0.429 V 0.051 A 0.021,0.021 0 0 0 0.429,0.03 Z M 0.408,0.282 0.345,0.219 0.24,0.324 0.198,0.282 0.072,0.408 V 0.072 H 0.408 Z M 0.114,0.1665 A 0.0525,0.0525 0 1 1 0.1665,0.219 0.0525,0.0525 0 0 1 0.114,0.1665 Z"
     id="path190"
     style="stroke-width:0.021" />
</svg>
