<?xml version="1.0" encoding="UTF-8" standalone="no"?>
<!-- Created with Inkscape (http://www.inkscape.org/) -->

<svg
   width="18"
   height="18"
   viewBox="0 0 4.7624999 4.7625"
   version="1.1"
   id="svg5"
   xml:space="preserve"
   inkscape:version="1.2 (dc2aedaf03, 2022-05-15)"
   sodipodi:docname="printing.svg"
   inkscape:export-filename="cut_dark.png"
   inkscape:export-xdpi="96"
   inkscape:export-ydpi="96"
   xmlns:inkscape="http://www.inkscape.org/namespaces/inkscape"
   xmlns:sodipodi="http://sodipodi.sourceforge.net/DTD/sodipodi-0.dtd"
   xmlns="http://www.w3.org/2000/svg"
   xmlns:svg="http://www.w3.org/2000/svg"><sodipodi:namedview
     id="namedview7"
     pagecolor="#ffffff"
     bordercolor="#000000"
     borderopacity="0.25"
     inkscape:showpageshadow="2"
     inkscape:pageopacity="0.0"
     inkscape:pagecheckerboard="0"
     inkscape:deskcolor="#d1d1d1"
     inkscape:document-units="mm"
     showgrid="false"
     inkscape:zoom="3.4305555"
     inkscape:cx="6.7044535"
     inkscape:cy="9.0364374"
     inkscape:window-width="1366"
     inkscape:window-height="697"
     inkscape:window-x="-8"
     inkscape:window-y="-8"
     inkscape:window-maximized="1"
     inkscape:current-layer="layer1" /><defs
     id="defs2" /><g
     inkscape:label="Camada 1"
     inkscape:groupmode="layer"
     id="layer1"><path
       style="fill:#003380;fill-opacity:1;stroke-width:0.00723369"
       d="M 1.2853476,4.0892613 C 1.250931,4.0734572 1.2355081,4.0573255 1.2205203,4.0214546 1.2110427,3.9987716 1.2093939,3.9444087 1.2093939,3.6546101 V 3.3143947 H 0.99369636 c -0.17713184,0 -0.22272234,-0.00208 -0.25498727,-0.01164 C 0.63470694,3.2719432 0.55634223,3.1866927 0.53667031,3.0829631 0.52619122,3.0277068 0.52690811,1.7791422 0.5374479,1.7287658 0.55622444,1.6390205 0.61483001,1.5664213 0.70173701,1.5252484 l 0.0483182,-0.022891 0.22966938,-0.00227 0.22966941,-0.00227 V 1.1327481 c 0,-0.3121691 0.00161,-0.36893294 0.011126,-0.39170318 0.014988,-0.0358708 0.030411,-0.0520026 0.064827,-0.0678067 0.027657,-0.0126999 0.075999,-0.0132939 1.0943266,-0.0134458 0.9426308,-1.4054e-4 1.0684603,0.001123 1.0920212,0.0109675 0.035871,0.0149878 0.052003,0.0304107 0.067806,0.0648273 0.01233,0.0268529 0.013298,0.0553153 0.013446,0.39558478 l 1.589e-4,0.3666499 0.2296693,0.00227 0.2296694,0.00227 0.048318,0.022891 c 0.086907,0.041173 0.1455126,0.1137721 0.1642891,0.2035174 0.01054,0.050376 0.011257,1.2989411 7.769e-4,1.3541973 -0.019672,0.1037333 -0.098037,0.1889837 -0.2020387,0.2197952 -0.032265,0.00956 -0.077856,0.01164 -0.2549873,0.01164 H 3.5531068 l -1.591e-4,0.3417915 c -1.468e-4,0.316146 -0.00116,0.3439625 -0.013446,0.3707262 -0.015804,0.034416 -0.031936,0.049839 -0.067806,0.064827 -0.023562,0.00984 -0.1493908,0.011101 -1.0920217,0.01096 C 1.3613467,4.1025553 1.3130041,4.1019578 1.2853476,4.0892613 Z M 3.3071615,3.3505631 V 2.8442053 H 2.3812503 1.4553391 V 3.3505631 3.8569208 H 2.3812503 3.3071615 Z M 1.7989389,3.6585923 c -0.026958,-0.012033 -0.058094,-0.044691 -0.06826,-0.071597 -0.020487,-0.054225 0.00493,-0.1198409 0.05712,-0.147438 l 0.0315,-0.016656 h 0.5619512 0.5619517 l 0.0315,0.016656 c 0.054177,0.028649 0.078608,0.096241 0.054854,0.1517582 -0.012044,0.02815 -0.044179,0.059365 -0.07189,0.069835 -0.032874,0.012421 -1.130598,0.01 -1.1587264,-0.00256 z M 1.7877989,3.261569 C 1.7336219,3.23292 1.7091909,3.165327 1.7329439,3.1098108 c 0.012044,-0.02815 0.044179,-0.059365 0.07189,-0.069835 0.013744,-0.0052 0.2011274,-0.00769 0.5764152,-0.00769 0.3752878,0 0.5626716,0.0025 0.5764152,0.00769 0.027712,0.010469 0.059846,0.041686 0.07189,0.069835 0.023754,0.055517 -6.777e-4,0.123109 -0.054854,0.1517582 l -0.0315,0.016656 h -0.56195 -0.5619517 z m 1.687891,-1.0492332 c 0.031674,-0.013234 0.068418,-0.056648 0.074248,-0.087727 0.010531,-0.056133 -0.021966,-0.1168273 -0.074248,-0.1386721 -0.033655,-0.014062 -0.3759262,-0.013983 -0.4096184,9.4e-5 -0.051801,0.021644 -0.084542,0.087882 -0.070046,0.1417115 0.00944,0.03505 0.038941,0.071339 0.068449,0.084192 0.031902,0.013895 0.3781115,0.014234 0.4112154,4.016e-4 z M 3.3071615,1.2021597 V 0.90557876 H 2.3812503 1.4553391 v 0.29658094 0.296581 h 0.9259112 0.9259112 z"
       id="path908" /></g></svg>
