<?xml version="1.0" encoding="UTF-8" standalone="no"?>
<!-- Created with Inkscape (http://www.inkscape.org/) -->

<svg
   width="16"
   height="16"
   viewBox="0 0 4.2333332 4.2333333"
   version="1.1"
   id="svg5"
   xml:space="preserve"
   inkscape:version="1.2 (dc2aedaf03, 2022-05-15)"
   sodipodi:docname="settings.svg"
   xmlns:inkscape="http://www.inkscape.org/namespaces/inkscape"
   xmlns:sodipodi="http://sodipodi.sourceforge.net/DTD/sodipodi-0.dtd"
   xmlns="http://www.w3.org/2000/svg"
   xmlns:svg="http://www.w3.org/2000/svg"><sodipodi:namedview
     id="namedview7"
     pagecolor="#ffffff"
     bordercolor="#000000"
     borderopacity="0.25"
     inkscape:showpageshadow="2"
     inkscape:pageopacity="0.0"
     inkscape:pagecheckerboard="0"
     inkscape:deskcolor="#d1d1d1"
     inkscape:document-units="mm"
     showgrid="false"
     inkscape:zoom="21.831922"
     inkscape:cx="7.420327"
     inkscape:cy="8.0157854"
     inkscape:window-width="1366"
     inkscape:window-height="697"
     inkscape:window-x="-8"
     inkscape:window-y="-8"
     inkscape:window-maximized="1"
     inkscape:current-layer="layer1" /><defs
     id="defs2" /><g
     inkscape:label="Camada 1"
     inkscape:groupmode="layer"
     id="layer1"><path
       style="fill:#ffffff;stroke-width:0.0230072"
       d="M 1.6843959,3.9284873 C 1.671313,3.9126699 1.6449079,3.7860909 1.6257177,3.647201 1.6065276,3.5083109 1.5809518,3.3913821 1.5688825,3.3873588 1.5568132,3.3833357 1.487517,3.3442625 1.4148909,3.3005294 1.3422649,3.2567961 1.2754568,3.2210146 1.2664286,3.2210146 c -0.00903,0 -0.1184083,0.0415 -0.2430668,0.092221 -0.12465851,0.050722 -0.24313542,0.08699 -0.26328202,0.080596 C 0.73993319,3.3874375 0.63244939,3.2248977 0.52122692,3.0326324 0.37215159,2.7749324 0.32394791,2.6724305 0.33781461,2.6426187 0.34816032,2.6203766 0.44351843,2.5344809 0.5497215,2.4517395 L 0.74281802,2.3013002 V 2.1143676 1.927435 L 0.5497215,1.7789803 C 0.44351843,1.6973302 0.34816032,1.6124691 0.33781461,1.5904001 0.32399031,1.5609108 0.37260747,1.4576132 0.52122692,1.2007013 0.63244939,1.008436 0.73993319,0.84589621 0.76007978,0.83950192 c 0.0201466,-0.006394 0.13862351,0.0298737 0.26328202,0.0805956 0.1246585,0.0507219 0.2340385,0.0922216 0.2430668,0.0922216 0.00903,0 0.075836,-0.035782 0.1484623,-0.0795148 0.072626,-0.0437331 0.1419223,-0.0828064 0.1539916,-0.0868295 0.012069,-0.004023 0.037645,-0.12095203 0.056835,-0.25984207 0.01919,-0.13889002 0.045595,-0.26546891 0.058678,-0.28128639 0.017398,-0.0210343 0.133511,-0.0287591 0.4322833,-0.0287591 0.2987723,0 0.4148855,0.007725 0.4322834,0.0287591 0.013083,0.0158175 0.039488,0.14239637 0.058678,0.28128639 0.01919,0.13889004 0.044766,0.25581898 0.056835,0.25984207 0.012069,0.004023 0.081365,0.0430964 0.1539914,0.0868295 0.072626,0.0437331 0.1394342,0.0795148 0.1484625,0.0795148 0.00903,0 0.1184082,-0.0415 0.2430667,-0.0922216 0.1246585,-0.0507219 0.2431355,-0.0869899 0.263282,-0.0805956 0.020147,0.006394 0.1276304,0.16893408 0.238853,0.36119938 C 3.860751,1.4576132 3.9093681,1.5609108 3.8955437,1.5904001 3.885198,1.6124691 3.7898399,1.6973302 3.6836369,1.7789803 L 3.4905405,1.927435 v 0.1892318 0.1892319 l 0.1930964,0.1484547 c 0.106203,0.08165 0.2015611,0.1665112 0.2119068,0.18858 0.013824,0.029489 -0.034793,0.132787 -0.1834121,0.389699 C 3.600909,3.2248977 3.4934252,3.3874375 3.4732786,3.3938316 3.4531321,3.4002261 3.3346551,3.3639579 3.2099966,3.3132361 3.0853381,3.2625143 2.9759579,3.2210146 2.9669299,3.2210146 c -0.00903,0 -0.075836,0.035782 -0.1484625,0.079515 -0.072626,0.043733 -0.1419223,0.082806 -0.1539914,0.086829 -0.012069,0.00402 -0.037645,0.1209521 -0.056835,0.2598422 -0.01919,0.1388899 -0.045595,0.2654689 -0.058678,0.2812863 -0.017398,0.021034 -0.1335111,0.028759 -0.4322834,0.028759 -0.2987723,0 -0.4148855,-0.00772 -0.4322837,-0.028759 z M 2.2645318,3.5373642 c 0.00588,-0.028472 0.01695,-0.1035326 0.024607,-0.1668025 C 2.3184861,3.1280501 2.3247774,3.1107022 2.3892104,3.0946293 2.4934507,3.0686263 2.671163,2.9702858 2.7827615,2.8768501 l 0.1067858,-0.089406 0.1782581,0.077513 c 0.2715708,0.1180896 0.2550836,0.1179966 0.3231664,0.00182 0.03307,-0.05643 0.060128,-0.1120338 0.060128,-0.1235638 0,-0.01153 -0.083671,-0.081208 -0.185936,-0.1548393 L 3.0792275,2.454499 3.0982715,2.371859 c 0.024538,-0.1064818 0.024538,-0.4039073 0,-0.5103889 L 3.0792275,1.7788301 3.2651638,1.644955 c 0.1022646,-0.073632 0.185936,-0.1412603 0.185936,-0.1502866 0,-0.00903 -0.026966,-0.064659 -0.059925,-0.1236283 C 3.3227273,1.2485769 3.334567,1.2485476 3.0636659,1.3718553 L 2.8948015,1.4487183 2.787579,1.3595472 C 2.6736936,1.2648345 2.5510021,1.1972897 2.4100216,1.1516918 2.3625691,1.136344 2.3236662,1.1168248 2.3235707,1.1083156 2.3233862,1.0919029 2.2862893,0.84444645 2.2652036,0.7189767 2.2526824,0.64447001 2.2521523,0.64420315 2.1166792,0.64420315 c -0.1354732,0 -0.1360033,2.6688e-4 -0.1485244,0.0747735 -0.020643,0.12283692 -0.05818,0.37277285 -0.058367,0.38862905 -9.66e-5,0.00812 -0.028645,0.021865 -0.063444,0.030548 C 1.738677,1.1650167 1.557998,1.2644995 1.4457793,1.358706 L 1.338557,1.4487182 1.1696924,1.3718552 C 0.89879138,1.2485476 0.91063114,1.2485769 0.84218376,1.3710426 c -0.0329586,0.058969 -0.0599247,0.1142749 -0.0599247,0.1229011 0,0.00863 0.0835103,0.077113 0.18557838,0.1521931 0.18507536,0.1361388 0.18552776,0.1367277 0.16689246,0.2172423 -0.024084,0.1040556 -0.024084,0.4025198 0,0.5065754 0.018635,0.080514 0.018183,0.081103 -0.16689246,0.2172425 -0.10206808,0.07508 -0.18557838,0.1456153 -0.18557838,0.1567456 0,0.01113 0.0270574,0.066407 0.0601275,0.1228368 0.0680677,0.1161486 0.0516879,0.1162273 0.32253984,-0.00155 l 0.1776314,-0.077241 0.1052219,0.088325 c 0.1073438,0.090107 0.3169222,0.2063736 0.3731466,0.2070091 0.066863,7.546e-4 0.088467,0.042863 0.1124761,0.2192248 0.042253,0.3103679 0.027041,0.2865812 0.1832768,0.2865812 0.1237426,0 0.1382126,-0.00507 0.1478526,-0.051766 z M 1.9495193,2.829212 C 1.8186223,2.7963388 1.6902271,2.724007 1.596632,2.6304119 1.3219075,2.3556873 1.3233735,1.8761803 1.5997831,1.5997707 c 0.2778996,-0.2778996 0.7558926,-0.2778996 1.0337923,0 0.2778994,0.2778997 0.2778994,0.7558926 0,1.0337923 C 2.4691702,2.7979682 2.1680484,2.8840928 1.9495193,2.829212 Z M 2.2622877,2.4534002 c 0.2363907,-0.09877 0.2940178,-0.40868 0.110178,-0.5925198 -0.1492377,-0.1492377 -0.3623353,-0.1492377 -0.5115729,0 -0.2845203,0.2845203 0.029418,0.7479415 0.4013949,0.5925198 z"
       id="path248" /></g></svg>
