<?xml version="1.0" encoding="UTF-8" standalone="no"?>
<!-- Created with Inkscape (http://www.inkscape.org/) -->

<svg
   width="18"
   height="18"
   viewBox="0 0 4.7624999 4.7625"
   version="1.1"
   id="svg5"
   xml:space="preserve"
   inkscape:version="1.2 (dc2aedaf03, 2022-05-15)"
   sodipodi:docname="zoom-in.svg"
   inkscape:export-filename="cut_dark.png"
   inkscape:export-xdpi="96"
   inkscape:export-ydpi="96"
   xmlns:inkscape="http://www.inkscape.org/namespaces/inkscape"
   xmlns:sodipodi="http://sodipodi.sourceforge.net/DTD/sodipodi-0.dtd"
   xmlns="http://www.w3.org/2000/svg"
   xmlns:svg="http://www.w3.org/2000/svg"><sodipodi:namedview
     id="namedview7"
     pagecolor="#ffffff"
     bordercolor="#000000"
     borderopacity="0.25"
     inkscape:showpageshadow="2"
     inkscape:pageopacity="0.0"
     inkscape:pagecheckerboard="0"
     inkscape:deskcolor="#d1d1d1"
     inkscape:document-units="mm"
     showgrid="false"
     inkscape:zoom="18.450971"
     inkscape:cx="3.6854429"
     inkscape:cy="7.696072"
     inkscape:window-width="1366"
     inkscape:window-height="697"
     inkscape:window-x="-8"
     inkscape:window-y="-8"
     inkscape:window-maximized="1"
     inkscape:current-layer="layer1" /><defs
     id="defs2" /><g
     inkscape:label="Camada 1"
     inkscape:groupmode="layer"
     id="layer1"><path
       style="fill:#003380;fill-opacity:1;stroke-width:0.00826823"
       d="m -3.7535417,2.7192061 c -0.172756,-0.030959 -0.2924308,-0.089267 -0.4038411,-0.1967597 -0.093534,-0.090245 -0.1607189,-0.2067196 -0.1962404,-0.3402117 -0.01151,-0.043256 -0.015218,-0.085523 -0.014848,-0.1692724 4.249e-4,-0.096356 0.00351,-0.1215803 0.022559,-0.1844433 0.057221,-0.1888353 0.1714822,-0.3335766 0.3360561,-0.4256998 0.1771147,-0.099143 0.4166617,-0.1146639 0.5967851,-0.038667 0.028749,0.01213 0.058866,0.022618 0.066927,0.023306 0.011552,9.874e-4 0.035347,-0.045399 0.1123523,-0.2190315 l 0.097696,-0.22028383 -0.3753505,-0.90006084 c -0.2064428,-0.4950335 -0.3848287,-0.92793328 -0.396413,-0.96199955 -0.049803,-0.14645718 -0.014556,-0.31650368 0.089896,-0.43369698 0.049728,-0.055794 0.2046221,-0.1617017 0.2364295,-0.1616576 0.060935,8.45e-5 0.044612,-0.031805 0.4309931,0.84201703 0.1973768,0.4463788 0.3613486,0.8115978 0.3643819,0.8115978 0.00303,0 0.1670051,-0.365219 0.3643819,-0.8115978 0.3863809,-0.87382223 0.370058,-0.84193253 0.4309931,-0.84201703 0.031927,-4.42e-5 0.1867798,0.105952 0.236835,0.1621127 0.046231,0.05187 0.086472,0.1273368 0.1009183,0.1892608 0.014068,0.060299 0.012511,0.16609647 -0.00324,0.22016599 -0.00746,0.0255958 -0.1833979,0.45347674 -0.390983,0.95084634 -0.2075852,0.4973695 -0.3789987,0.9136101 -0.3809187,0.9249789 -0.00234,0.013863 0.027986,0.091471 0.092082,0.23564467 0.074732,0.1680954 0.098735,0.2147008 0.1100732,0.2137213 0.00798,-6.887e-4 0.038022,-0.011177 0.066771,-0.023306 0.1577232,-0.066546 0.3554948,-0.064011 0.5308123,0.0068 0.1973108,0.079697 0.3529824,0.2622704 0.4099364,0.4807771 0.022653,0.086909 0.020793,0.2504087 -0.0039,0.3431315 -0.1272483,0.4777422 -0.6910788,0.6829321 -1.0836886,0.3943779 -0.1726073,-0.1268602 -0.278058,-0.3211609 -0.2981079,-0.5492857 -0.020661,-0.2350803 -0.038546,-0.3208575 -0.092559,-0.4439213 -0.03114,-0.07095 -0.082517,-0.1544958 -0.092884,-0.1510404 -0.010414,0.00347 -0.083325,0.1397426 -0.1048141,0.1959003 -0.037286,0.097439 -0.056853,0.1979583 -0.065763,0.3378461 -0.00973,0.1528212 -0.028307,0.2465485 -0.064806,0.3270454 -0.11199,0.2469887 -0.3476896,0.4052106 -0.6169017,0.4141177 -0.050023,0.00166 -0.1002523,0.00134 -0.1116211,-6.954e-4 z m 0.1950761,-0.3674189 c 0.1266685,-0.043338 0.2135546,-0.1457069 0.2361703,-0.2782547 0.039635,-0.2322961 -0.16857,-0.4405011 -0.4008661,-0.400866 -0.2411814,0.041151 -0.3658034,0.2940359 -0.2534405,0.5142853 0.036865,0.072261 0.1232507,0.1418429 0.2102083,0.1693177 0.053511,0.016907 0.1515902,0.014793 0.207928,-0.00448 z m 1.7489376,0.00494 c 0.062671,-0.019022 0.1068995,-0.045423 0.1525215,-0.091045 0.069775,-0.069776 0.1025716,-0.1493866 0.1027241,-0.2493588 2.613e-4,-0.1714301 -0.1222439,-0.3142026 -0.294874,-0.3436572 -0.2322962,-0.039635 -0.4405012,0.1685699 -0.4008661,0.400866 0.02939,0.1722487 0.1695268,0.2935034 0.3402958,0.2944433 0.034107,1.877e-4 0.079196,-0.00487 0.1001987,-0.011248 z M -2.7218146,1.1236891 c 0.065556,-0.027384 0.1087803,-0.092008 0.1091069,-0.16312453 4.619e-4,-0.10056924 -0.072691,-0.17391874 -0.1734512,-0.17391874 -0.09989,0 -0.1736328,0.073099 -0.1736328,0.17211724 0,0.12453143 0.1258632,0.21175873 0.2379771,0.16492603 z"
       id="path3047" /><path
       style="fill:#003380;fill-opacity:1;stroke-width:0.00827117"
       d="M 4.0293853,4.4935056 C 3.9860732,4.4842597 3.9099039,4.4528923 3.8763689,4.4304916 3.8558977,4.4168174 3.6158274,4.1829837 3.3428791,3.9108613 L 2.8466096,3.4160933 2.7266777,3.4761921 C 2.1149867,3.7827154 1.3914053,3.7005363 0.86980244,3.2653019 0.55693524,3.00424 0.35316924,2.6453813 0.28110177,2.2285227 0.26099867,2.1122409 0.26103677,1.81493 0.28116954,1.6995237 0.34805054,1.3161435 0.51453016,0.99813921 0.78390315,0.73921708 1.2211864,0.31889917 1.8482028,0.16339582 2.4314954,0.33060561 3.0369351,0.50416423 3.4999809,1.0053235 3.6233776,1.6205925 3.7001596,2.003434 3.6497456,2.3784899 3.4745362,2.7279089 l -0.060649,0.1209507 0.506838,0.5086763 c 0.4618118,0.4634869 0.5090996,0.5134524 0.5322966,0.5624388 0.044176,0.093288 0.054703,0.1858102 0.031346,0.2754851 -0.03736,0.1434337 -0.1472487,0.2536746 -0.289903,0.2908314 -0.045298,0.011799 -0.1268992,0.015365 -0.1650795,0.00721 z M 2.1643502,3.1471452 C 2.5150867,3.0857164 2.8265701,2.8691557 2.9998906,2.5662308 3.1062018,2.3804226 3.158769,2.1830143 3.1591964,1.9679812 3.1595421,1.7941596 3.1297484,1.642832 3.0661272,1.4952611 2.9992087,1.3400425 2.9236859,1.2294743 2.8014611,1.1077805 2.6302291,0.93729259 2.4108759,0.82492092 2.1601033,0.77922165 2.057699,0.76056011 1.8632089,0.76114505 1.7548165,0.78044056 1.3093857,0.85973411 0.94193984,1.1847573 0.81277276,1.6137227 0.77482395,1.7397512 0.7632031,1.8218322 0.7632031,1.9638455 c 0,0.2037643 0.0366243,0.359495 0.12684112,0.5393436 0.18662738,0.3720443 0.54660108,0.6160815 0.97229738,0.6591506 0.059353,0.006 0.2299816,-0.00258 0.3020086,-0.015194 z M 1.7672232,2.3983507 V 2.1419145 L 1.5128851,2.1397298 1.2585469,2.137545 V 1.9431676 1.7487954 l 0.2542188,-0.00218 0.2542188,-0.00218 0.00218,-0.2542189 0.00218,-0.2542188 H 1.9657168 2.160089 l 0.00218,0.2542188 0.00218,0.2542189 0.2542188,0.00218 0.2542188,0.00218 v 0.1943722 0.1943723 l -0.2542188,0.00218 -0.2542188,0.00218 -0.00218,0.2542188 -0.00218,0.2542188 -0.19644,0.00222 -0.1964401,0.00222 z"
       id="path1146" /></g></svg>
