<?xml version="1.0" encoding="UTF-8" standalone="no"?>
<!-- Created with Inkscape (http://www.inkscape.org/) -->

<svg
   width="18"
   height="18"
   viewBox="0 0 4.7624999 4.7625"
   version="1.1"
   id="svg5"
   xml:space="preserve"
   inkscape:version="1.2 (dc2aedaf03, 2022-05-15)"
   sodipodi:docname="zoom-out.svg"
   inkscape:export-filename="cut_dark.png"
   inkscape:export-xdpi="96"
   inkscape:export-ydpi="96"
   xmlns:inkscape="http://www.inkscape.org/namespaces/inkscape"
   xmlns:sodipodi="http://sodipodi.sourceforge.net/DTD/sodipodi-0.dtd"
   xmlns="http://www.w3.org/2000/svg"
   xmlns:svg="http://www.w3.org/2000/svg"><sodipodi:namedview
     id="namedview7"
     pagecolor="#ffffff"
     bordercolor="#000000"
     borderopacity="0.25"
     inkscape:showpageshadow="2"
     inkscape:pageopacity="0.0"
     inkscape:pagecheckerboard="0"
     inkscape:deskcolor="#d1d1d1"
     inkscape:document-units="mm"
     showgrid="false"
     inkscape:zoom="18.450971"
     inkscape:cx="3.6854429"
     inkscape:cy="7.696072"
     inkscape:window-width="1366"
     inkscape:window-height="697"
     inkscape:window-x="-8"
     inkscape:window-y="-8"
     inkscape:window-maximized="1"
     inkscape:current-layer="layer1" /><defs
     id="defs2" /><g
     inkscape:label="Camada 1"
     inkscape:groupmode="layer"
     id="layer1"><path
       style="fill:#003380;fill-opacity:1;stroke-width:0.00826823"
       d="m -3.7535417,2.7192061 c -0.172756,-0.030959 -0.2924308,-0.089267 -0.4038411,-0.1967597 -0.093534,-0.090245 -0.1607189,-0.2067196 -0.1962404,-0.3402117 -0.01151,-0.043256 -0.015218,-0.085523 -0.014848,-0.1692724 4.249e-4,-0.096356 0.00351,-0.1215803 0.022559,-0.1844433 0.057221,-0.1888353 0.1714822,-0.3335766 0.3360561,-0.4256998 0.1771147,-0.099143 0.4166617,-0.1146639 0.5967851,-0.038667 0.028749,0.01213 0.058866,0.022618 0.066927,0.023306 0.011552,9.874e-4 0.035347,-0.045399 0.1123523,-0.2190315 l 0.097696,-0.22028383 -0.3753505,-0.90006084 c -0.2064428,-0.4950335 -0.3848287,-0.92793328 -0.396413,-0.96199955 -0.049803,-0.14645718 -0.014556,-0.31650368 0.089896,-0.43369698 0.049728,-0.055794 0.2046221,-0.1617017 0.2364295,-0.1616576 0.060935,8.45e-5 0.044612,-0.031805 0.4309931,0.84201703 0.1973768,0.4463788 0.3613486,0.8115978 0.3643819,0.8115978 0.00303,0 0.1670051,-0.365219 0.3643819,-0.8115978 0.3863809,-0.87382223 0.370058,-0.84193253 0.4309931,-0.84201703 0.031927,-4.42e-5 0.1867798,0.105952 0.236835,0.1621127 0.046231,0.05187 0.086472,0.1273368 0.1009183,0.1892608 0.014068,0.060299 0.012511,0.16609647 -0.00324,0.22016599 -0.00746,0.0255958 -0.1833979,0.45347674 -0.390983,0.95084634 -0.2075852,0.4973695 -0.3789987,0.9136101 -0.3809187,0.9249789 -0.00234,0.013863 0.027986,0.091471 0.092082,0.23564467 0.074732,0.1680954 0.098735,0.2147008 0.1100732,0.2137213 0.00798,-6.887e-4 0.038022,-0.011177 0.066771,-0.023306 0.1577232,-0.066546 0.3554948,-0.064011 0.5308123,0.0068 0.1973108,0.079697 0.3529824,0.2622704 0.4099364,0.4807771 0.022653,0.086909 0.020793,0.2504087 -0.0039,0.3431315 -0.1272483,0.4777422 -0.6910788,0.6829321 -1.0836886,0.3943779 -0.1726073,-0.1268602 -0.278058,-0.3211609 -0.2981079,-0.5492857 -0.020661,-0.2350803 -0.038546,-0.3208575 -0.092559,-0.4439213 -0.03114,-0.07095 -0.082517,-0.1544958 -0.092884,-0.1510404 -0.010414,0.00347 -0.083325,0.1397426 -0.1048141,0.1959003 -0.037286,0.097439 -0.056853,0.1979583 -0.065763,0.3378461 -0.00973,0.1528212 -0.028307,0.2465485 -0.064806,0.3270454 -0.11199,0.2469887 -0.3476896,0.4052106 -0.6169017,0.4141177 -0.050023,0.00166 -0.1002523,0.00134 -0.1116211,-6.954e-4 z m 0.1950761,-0.3674189 c 0.1266685,-0.043338 0.2135546,-0.1457069 0.2361703,-0.2782547 0.039635,-0.2322961 -0.16857,-0.4405011 -0.4008661,-0.400866 -0.2411814,0.041151 -0.3658034,0.2940359 -0.2534405,0.5142853 0.036865,0.072261 0.1232507,0.1418429 0.2102083,0.1693177 0.053511,0.016907 0.1515902,0.014793 0.207928,-0.00448 z m 1.7489376,0.00494 c 0.062671,-0.019022 0.1068995,-0.045423 0.1525215,-0.091045 0.069775,-0.069776 0.1025716,-0.1493866 0.1027241,-0.2493588 2.613e-4,-0.1714301 -0.1222439,-0.3142026 -0.294874,-0.3436572 -0.2322962,-0.039635 -0.4405012,0.1685699 -0.4008661,0.400866 0.02939,0.1722487 0.1695268,0.2935034 0.3402958,0.2944433 0.034107,1.877e-4 0.079196,-0.00487 0.1001987,-0.011248 z M -2.7218146,1.1236891 c 0.065556,-0.027384 0.1087803,-0.092008 0.1091069,-0.16312453 4.619e-4,-0.10056924 -0.072691,-0.17391874 -0.1734512,-0.17391874 -0.09989,0 -0.1736328,0.073099 -0.1736328,0.17211724 0,0.12453143 0.1258632,0.21175873 0.2379771,0.16492603 z"
       id="path3047" /><path
       style="fill:#003380;fill-opacity:1;stroke-width:0.00826769"
       d="M 4.1541056,4.4840496 C 4.1399361,4.476983 3.8485681,4.1800679 3.5066211,3.8242383 L 2.8848994,3.1772754 2.8089625,3.2230712 C 2.3510405,3.4992327 1.7691301,3.5190366 1.2861635,3.274896 0.64685638,2.9517248 0.2998269,2.2426376 0.43943321,1.5447673 0.53966518,1.0437233 0.8881343,0.608422 1.3543247,0.40190149 1.9262475,0.14854198 2.5789456,0.25061318 3.0566489,0.66811687 c 0.241516,0.21108041 0.428636,0.53203153 0.4975912,0.85347593 0.080158,0.3736677 0.019273,0.779441 -0.1659427,1.105945 -0.061854,0.1090379 -0.140668,0.2174526 -0.2159073,0.2969971 -0.03573,0.037774 -0.063095,0.073337 -0.060812,0.079027 0.00228,0.00569 0.2603247,0.2767009 0.5734254,0.6022456 0.7132787,0.7416273 0.6530533,0.6765657 0.6640392,0.7173641 0.030123,0.1118711 -0.091665,0.2123817 -0.1949371,0.160878 z M 2.1301162,3.157808 C 2.636782,3.1070257 3.0776667,2.757008 3.2378169,2.2784059 3.2920429,2.1163539 3.3022242,2.0500408 3.3026035,1.8564335 3.3029872,1.6604549 3.291873,1.5885631 3.2365874,1.4294267 3.1697952,1.2371688 3.0685761,1.0761399 2.9230361,0.93059994 2.7730382,0.780602 2.6086903,0.67891564 2.4088334,0.61244918 2.2855203,0.5714389 2.1918539,0.55472898 2.0509423,0.54860208 1.5376244,0.52628273 1.0605233,0.80885721 0.8275022,1.2732137 0.58125592,1.7639248 0.67068032,2.3565708 1.0514554,2.7574279 c 0.2397101,0.2523524 0.5803513,0.4019519 0.9298427,0.4083594 0.032178,5.903e-4 0.099146,-0.003 0.1488181,-0.00798 z M 1.2152596,1.9740512 c -0.043471,-0.029295 -0.065494,-0.068004 -0.065494,-0.115117 0,-0.066682 0.040698,-0.1210671 0.103346,-0.1381008 0.044763,-0.012171 1.4503987,-0.012597 1.4941254,-4.522e-4 0.043211,0.012001 0.077301,0.043487 0.093768,0.086606 0.02491,0.065227 -0.00237,0.1386487 -0.063012,0.1695854 -0.031047,0.015839 -0.052178,0.016278 -0.7833727,0.016278 H 1.2431555 Z"
       id="path1235" /></g></svg>
