<?xml version="1.0" encoding="UTF-8" standalone="no"?>
<!-- Created with Inkscape (http://www.inkscape.org/) -->

<svg
   width="18"
   height="18"
   viewBox="0 0 4.7624999 4.7625"
   version="1.1"
   id="svg5"
   xml:space="preserve"
   inkscape:version="1.2 (dc2aedaf03, 2022-05-15)"
   sodipodi:docname="cut.svg"
   inkscape:export-filename="cut_dark.png"
   inkscape:export-xdpi="96"
   inkscape:export-ydpi="96"
   xmlns:inkscape="http://www.inkscape.org/namespaces/inkscape"
   xmlns:sodipodi="http://sodipodi.sourceforge.net/DTD/sodipodi-0.dtd"
   xmlns="http://www.w3.org/2000/svg"
   xmlns:svg="http://www.w3.org/2000/svg"><sodipodi:namedview
     id="namedview7"
     pagecolor="#ffffff"
     bordercolor="#000000"
     borderopacity="0.25"
     inkscape:showpageshadow="2"
     inkscape:pageopacity="0.0"
     inkscape:pagecheckerboard="0"
     inkscape:deskcolor="#d1d1d1"
     inkscape:document-units="mm"
     showgrid="false"
     inkscape:zoom="9.7030762"
     inkscape:cx="7.6264473"
     inkscape:cy="8.9662286"
     inkscape:window-width="1366"
     inkscape:window-height="697"
     inkscape:window-x="-8"
     inkscape:window-y="-8"
     inkscape:window-maximized="1"
     inkscape:current-layer="layer1" /><defs
     id="defs2" /><g
     inkscape:label="Camada 1"
     inkscape:groupmode="layer"
     id="layer1"><path
       style="fill:#003380;fill-opacity:1;stroke-width:0.00775526"
       d="M 1.4733258,4.3631344 C 1.3112879,4.3340963 1.1990379,4.2794059 1.0945397,4.178582 1.0068084,4.0939355 0.94379221,3.9846877 0.91047451,3.8594776 0.89967854,3.8189055 0.8962009,3.7792604 0.89654733,3.7007072 0.89694589,3.6103295 0.89983961,3.58667 0.91770651,3.5277071 0.97137691,3.3505875 1.0785496,3.2148262 1.2329129,3.1284184 1.3990391,3.0354259 1.6237242,3.0208686 1.7926724,3.0921506 c 0.026966,0.011377 0.055214,0.021214 0.062775,0.02186 0.010835,9.262e-4 0.033154,-0.042583 0.1053815,-0.2054423 L 2.0524639,2.701951 1.7004008,1.8577316 C 1.5067661,1.3934108 1.3394475,0.98736894 1.328582,0.95541624 1.2818683,0.81804544 1.3149286,0.658549 1.4129009,0.54862659 c 0.046643,-0.052332 0.191927,-0.15166946 0.221761,-0.15162809 0.057154,7.922e-5 0.041845,-0.029832 0.4042535,0.7897767 0.1851312,0.4186848 0.3389299,0.7612449 0.3417751,0.7612449 0.00284,0 0.1566437,-0.3425601 0.3417749,-0.7612449 0.3624092,-0.81960864 0.3470989,-0.78969748 0.4042535,-0.7897767 0.029946,-4.152e-5 0.1751916,0.0993785 0.2221413,0.15205496 0.043363,0.0486516 0.081107,0.11943651 0.094657,0.17751864 0.013195,0.0565575 0.011734,0.15579164 -0.00304,0.20650654 -0.007,0.024007 -0.1720197,0.42534226 -0.3667258,0.89185416 -0.1947062,0.4665118 -0.355485,0.856928 -0.3572859,0.8675915 -0.0022,0.013003 0.02625,0.085796 0.086369,0.2210247 0.070095,0.1576665 0.092609,0.2013805 0.103244,0.2004617 0.00749,-6.459e-4 0.035662,-0.010478 0.062628,-0.02186 0.1479378,-0.062417 0.3334393,-0.06004 0.4978799,0.00637 0.1850692,0.074753 0.3310827,0.2459986 0.3845031,0.4509487 0.021247,0.081517 0.019503,0.2348729 -0.00365,0.321843 C 3.7280801,4.319423 3.1992305,4.5118825 2.8309789,4.2412308 2.6690805,4.1222412 2.5701722,3.9399953 2.5513661,3.7260237 2.5319868,3.5055282 2.5152115,3.4250728 2.4645496,3.3096442 2.4353417,3.2430964 2.3871517,3.1647336 2.3774287,3.1679745 c -0.00977,0.00326 -0.078155,0.1310727 -0.098311,0.1837463 -0.034973,0.091394 -0.053325,0.1856766 -0.061683,0.3168856 -0.00913,0.1433399 -0.02655,0.2312521 -0.060785,0.3067548 C 2.0516073,4.2070264 1.8305307,4.3554319 1.578021,4.3637863 1.531102,4.3653363 1.483988,4.3650363 1.4733258,4.3631344 Z M 1.656299,4.0185107 C 1.7751087,3.9778615 1.8566043,3.8818438 1.8778168,3.7575195 1.9149928,3.5396355 1.7197053,3.344348 1.5018213,3.381524 1.2756031,3.4201218 1.158713,3.6573174 1.2641047,3.8639021 1.2986827,3.9316801 1.3797086,3.9969448 1.4612712,4.022715 1.5114622,4.038573 1.6034565,4.03659 1.656299,4.018515 Z m 1.6404303,0.00463 C 3.3555126,4.0053026 3.3969967,3.9805396 3.4397882,3.9377482 3.5052347,3.8723016 3.5359962,3.7976299 3.5361392,3.70386 3.5363842,3.5430658 3.4214795,3.4091512 3.2595595,3.381524 3.0416754,3.344348 2.8463879,3.5396355 2.883564,3.7575195 c 0.027567,0.1615621 0.159009,0.275294 0.3191831,0.2761755 0.031991,1.761e-4 0.074282,-0.00456 0.093982,-0.010554 z M 2.4410426,2.8666061 c 0.061489,-0.025685 0.1020311,-0.0863 0.1023375,-0.1530039 4.333e-4,-0.09433 -0.06818,-0.1631285 -0.1626899,-0.1631285 -0.093692,0 -0.1628603,0.068564 -0.1628603,0.1614388 0,0.1168052 0.1180544,0.1986208 0.2232127,0.1546936 z"
       id="path3047" /></g></svg>
