<?xml version="1.0" encoding="UTF-8" standalone="no"?>
<!-- Created with Inkscape (http://www.inkscape.org/) -->

<svg
   width="18"
   height="18"
   viewBox="0 0 4.7624999 4.7625"
   version="1.1"
   id="svg5"
   xml:space="preserve"
   inkscape:version="1.2 (dc2aedaf03, 2022-05-15)"
   sodipodi:docname="link.svg"
   inkscape:export-filename="cut_dark.png"
   inkscape:export-xdpi="96"
   inkscape:export-ydpi="96"
   xmlns:inkscape="http://www.inkscape.org/namespaces/inkscape"
   xmlns:sodipodi="http://sodipodi.sourceforge.net/DTD/sodipodi-0.dtd"
   xmlns="http://www.w3.org/2000/svg"
   xmlns:svg="http://www.w3.org/2000/svg"><sodipodi:namedview
     id="namedview7"
     pagecolor="#ffffff"
     bordercolor="#000000"
     borderopacity="0.25"
     inkscape:showpageshadow="2"
     inkscape:pageopacity="0.0"
     inkscape:pagecheckerboard="0"
     inkscape:deskcolor="#d1d1d1"
     inkscape:document-units="mm"
     showgrid="false"
     inkscape:zoom="19.406153"
     inkscape:cx="6.6473763"
     inkscape:cy="9.0177585"
     inkscape:window-width="1366"
     inkscape:window-height="697"
     inkscape:window-x="-8"
     inkscape:window-y="-8"
     inkscape:window-maximized="1"
     inkscape:current-layer="layer1" /><defs
     id="defs2" /><g
     inkscape:label="Camada 1"
     inkscape:groupmode="layer"
     id="layer1"><path
       fill="currentColor"
       d="m 3.3072915,1.825625 h -0.740833 v 0.3704167 h 0.740833 c 0.305593,0 0.555625,0.2500312 0.555625,0.555625 0,0.3055936 -0.250032,0.5556249 -0.555625,0.5556249 h -0.740833 v 0.3704166 h 0.740833 c 0.511175,0 0.926042,-0.4148666 0.926042,-0.9260415 0,-0.511175 -0.414867,-0.9260417 -0.926042,-0.9260417 z m -1.11125,1.4816666 h -0.740833 c -0.305594,0 -0.555625,-0.2500313 -0.555625,-0.5556249 0,-0.3055938 0.250031,-0.555625 0.555625,-0.555625 h 0.740833 V 1.825625 h -0.740833 c -0.511175,0 -0.926042,0.4148667 -0.926042,0.9260417 0,0.5111749 0.414867,0.9260415 0.926042,0.9260415 h 0.740833 z M 1.6404165,2.5664583 h 1.481667 v 0.3704166 h -1.481667 z"
       id="path230"
       style="stroke-width:0.185208;fill:#e6e6e6" /></g></svg>
