<?xml version="1.0" encoding="UTF-8" standalone="no"?>
<!-- Created with Inkscape (http://www.inkscape.org/) -->

<svg
   width="16"
   height="16"
   viewBox="0 0 4.2333332 4.2333333"
   version="1.1"
   id="svg5"
   xml:space="preserve"
   inkscape:version="1.2 (dc2aedaf03, 2022-05-15)"
   sodipodi:docname="paste.svg"
   xmlns:inkscape="http://www.inkscape.org/namespaces/inkscape"
   xmlns:sodipodi="http://sodipodi.sourceforge.net/DTD/sodipodi-0.dtd"
   xmlns="http://www.w3.org/2000/svg"
   xmlns:svg="http://www.w3.org/2000/svg"><sodipodi:namedview
     id="namedview7"
     pagecolor="#ffffff"
     bordercolor="#000000"
     borderopacity="0.25"
     inkscape:showpageshadow="2"
     inkscape:pageopacity="0.0"
     inkscape:pagecheckerboard="0"
     inkscape:deskcolor="#d1d1d1"
     inkscape:document-units="mm"
     showgrid="false"
     inkscape:zoom="30.875"
     inkscape:cx="8"
     inkscape:cy="8"
     inkscape:window-width="1366"
     inkscape:window-height="697"
     inkscape:window-x="-8"
     inkscape:window-y="-8"
     inkscape:window-maximized="1"
     inkscape:current-layer="layer1" /><defs
     id="defs2" /><g
     inkscape:label="Camada 1"
     inkscape:groupmode="layer"
     id="layer1"><path
       style="fill:#e6e6e6;stroke-width:0.0330751"
       d="M 0.77712453,3.9371954 C 0.74074206,3.9221439 0.67376482,3.869797 0.6282865,3.8208641 L 0.5455987,3.7318941 V 2.246815 0.76173541 L 0.65002003,0.65731404 C 0.73210035,0.57523372 0.7902839,0.54944871 0.92196841,0.53679546 1.0504382,0.52445119 1.0942543,0.50570426 1.1099076,0.45638552 c 0.011227,-0.0353718 0.067456,-0.0929978 0.1249529,-0.12805727 0.091355,-0.0557045 0.1692025,-0.0637449 0.6172052,-0.0637449 0.4480028,0 0.52585,0.00804 0.6172054,0.0637449 0.057497,0.0350595 0.1137263,0.0926852 0.124953,0.12805727 0.015653,0.0493189 0.059469,0.0680658 0.1879391,0.0804099 0.1316759,0.0126527 0.1898733,0.038441 0.2719483,0.12050689 0.098138,0.098127 0.1051231,0.1212889 0.1160842,0.38492379 l 0.011663,0.2805142 H 3.0461641 2.9104696 V 1.0978295 c 0,-0.25418516 -0.030677,-0.30429109 -0.1862993,-0.30429109 -0.079059,0 -0.1125786,0.0178316 -0.1286386,0.0684324 -0.011946,0.037638 -0.068763,0.0971174 -0.1262605,0.13217683 -0.091355,0.0557041 -0.1692025,0.0637439 -0.6172053,0.0637439 -0.4480027,0 -0.5258498,-0.00804 -0.6172052,-0.0637439 -0.057497,-0.0350597 -0.1143148,-0.0945391 -0.1262605,-0.13217683 -0.01606,-0.0506007 -0.049579,-0.0684324 -0.12863862,-0.0684324 -0.0588055,0 -0.12477959,0.0178603 -0.14660915,0.0396904 -0.0570546,0.0570546 -0.0570546,2.77417529 0,2.83122979 0.0261867,0.026189 0.16684547,0.03969 0.41343887,0.03969 H 1.6205401 V 3.8364496 3.96875 L 1.2319076,3.9666575 C 1.0181596,3.9654949 0.81350731,3.9522493 0.77712468,3.9371978 Z M 2.3610101,0.71911936 c 0.026557,-0.0421643 0.026558,-0.0735981 3.1e-6,-0.11576295 C 2.3296772,0.55360041 2.26069,0.54417971 1.8695984,0.53624861 1.4015012,0.52675561 1.322864,0.54436361 1.322864,0.65867279 c 0,0.12139138 0.065846,0.13689333 0.5413972,0.12745932 0.396239,-0.007861 0.4653653,-0.017186 0.4967489,-0.0670128 z M 2.1001291,3.9381798 C 2.0637467,3.9225857 1.9967694,3.869797 1.9512911,3.8208641 l -0.082688,-0.08897 V 2.7760171 1.8201391 L 1.9767336,1.7120093 2.0848637,1.6038788 H 2.778169 3.4714743 L 3.5796045,1.7120093 3.6877346,1.8201391 V 2.7780454 3.7359518 L 3.5796803,3.8440823 3.4716257,3.9522121 2.8189525,3.9593426 c -0.3589702,0.00395 -0.6824408,-0.00558 -0.7188234,-0.02119 z M 3.3999812,3.6644586 c 0.056496,-0.056494 0.056496,-1.7163291 0,-1.7728265 -0.055835,-0.055835 -1.1877891,-0.055835 -1.2436243,0 -0.056497,0.056494 -0.056497,1.71633 0,1.7728265 0.055835,0.055835 1.1877889,0.055835 1.2436243,0 z"
       id="path302" /></g></svg>
