<?xml version="1.0" encoding="UTF-8" standalone="no"?>
<svg
   width="16"
   height="16"
   viewBox="0 0 16 16"
   version="1.1"
   id="svg4"
   sodipodi:docname="save.svg"
   inkscape:version="1.2 (dc2aedaf03, 2022-05-15)"
   xmlns:inkscape="http://www.inkscape.org/namespaces/inkscape"
   xmlns:sodipodi="http://sodipodi.sourceforge.net/DTD/sodipodi-0.dtd"
   xmlns="http://www.w3.org/2000/svg"
   xmlns:svg="http://www.w3.org/2000/svg">
  <defs
     id="defs8" />
  <sodipodi:namedview
     id="namedview6"
     pagecolor="#ffffff"
     bordercolor="#000000"
     borderopacity="0.25"
     inkscape:showpageshadow="2"
     inkscape:pageopacity="0.0"
     inkscape:pagecheckerboard="0"
     inkscape:deskcolor="#d1d1d1"
     showgrid="false"
     inkscape:zoom="21.541667"
     inkscape:cx="11.141199"
     inkscape:cy="9.934236"
     inkscape:window-width="1366"
     inkscape:window-height="697"
     inkscape:window-x="-8"
     inkscape:window-y="-8"
     inkscape:window-maximized="1"
     inkscape:current-layer="svg4" />
  <path
     fill="currentColor"
     d="M 11.888889,1 H 2.5555556 A 1.5555556,1.5555556 0 0 0 1,2.5555556 V 13.444444 A 1.5555556,1.5555556 0 0 0 2.5555556,15 H 13.444444 C 14.3,15 15,14.3 15,13.444444 V 4.1111111 L 11.888889,1 m 1.555555,12.444444 H 2.5555556 V 2.5555556 h 8.6877774 l 2.201111,2.2011111 V 13.444444 M 8,8 c -1.2911111,0 -2.3333333,1.042222 -2.3333333,2.333333 0,1.291111 1.0422222,2.333334 2.3333333,2.333334 1.291111,0 2.333333,-1.042223 2.333333,-2.333334 C 10.333333,9.042222 9.291111,8 8,8 M 3.3333333,3.3333333 H 10.333333 V 6.4444444 H 3.3333333 Z"
     id="path2"
     style="stroke-width:0.777778" />
</svg>
