<?xml version="1.0" encoding="UTF-8" standalone="no"?>
<!-- Created with Inkscape (http://www.inkscape.org/) -->

<svg
   width="18"
   height="18"
   viewBox="0 0 4.7624999 4.7625"
   version="1.1"
   id="svg5"
   xml:space="preserve"
   inkscape:version="1.2 (dc2aedaf03, 2022-05-15)"
   sodipodi:docname="underline.svg"
   inkscape:export-filename="cut_dark.png"
   inkscape:export-xdpi="96"
   inkscape:export-ydpi="96"
   xmlns:inkscape="http://www.inkscape.org/namespaces/inkscape"
   xmlns:sodipodi="http://sodipodi.sourceforge.net/DTD/sodipodi-0.dtd"
   xmlns="http://www.w3.org/2000/svg"
   xmlns:svg="http://www.w3.org/2000/svg"><sodipodi:namedview
     id="namedview7"
     pagecolor="#ffffff"
     bordercolor="#000000"
     borderopacity="0.25"
     inkscape:showpageshadow="2"
     inkscape:pageopacity="0.0"
     inkscape:pagecheckerboard="0"
     inkscape:deskcolor="#d1d1d1"
     inkscape:document-units="mm"
     showgrid="false"
     inkscape:zoom="2.6847826"
     inkscape:cx="-1.1174089"
     inkscape:cy="4.097166"
     inkscape:window-width="1366"
     inkscape:window-height="697"
     inkscape:window-x="-8"
     inkscape:window-y="-8"
     inkscape:window-maximized="1"
     inkscape:current-layer="layer1" /><defs
     id="defs2" /><g
     inkscape:label="Camada 1"
     inkscape:groupmode="layer"
     id="layer1"><path
       fill="currentColor"
       d="m 4.2333335,3.8629165 a 0.22224999,0.22224999 0 0 1 -0.22225,0.22225 h -3.259667 a 0.22225,0.22225 0 0 1 0,-0.4445 h 3.259667 a 0.22224999,0.22224999 0 0 1 0.22225,0.22225 z m -1.852084,-0.4445 a 1.4094354,1.4094354 0 0 0 1.407584,-1.407583 v -1.11125 a 0.22225,0.22225 0 0 0 -0.4445,0 v 1.11125 a 0.9630835,0.9630835 0 0 1 -1.926167,0 v -1.11125 a 0.22225,0.22225 0 0 0 -0.4445,0 v 1.11125 a 1.4094354,1.4094354 0 0 0 1.407583,1.407583 z"
       id="path457"
       style="stroke-width:0.0185208" /></g></svg>
